<svg id="Layer_1" data-name="Layer 1" xmlns="http://www.w3.org/2000/svg" viewBox="0 0 841.89 595.28"><title>Mascot</title><path d="M368.22,394.16V198a17.74,17.74,0,0,0-17.74-17.74h0A17.74,17.74,0,0,0,332.74,198v64.35H298.06V198a17.74,17.74,0,0,0-17.74-17.74h0A17.75,17.75,0,0,0,262.57,198V394.16c-24.06,2.07-39.81,5.52-39.81,9.42s15.75,7.34,39.81,9.41l5.15.41c13.93,1,30.24,1.64,47.68,1.64s33.75-.6,47.68-1.64l5.14-.41c24.06-2.07,39.82-5.51,39.82-9.41S392.28,396.23,368.22,394.16ZM337,293.81a7.68,7.68,0,1,1-7.68,7.68A7.68,7.68,0,0,1,337,293.81Zm-43.16,0a7.68,7.68,0,1,1-7.68,7.68A7.68,7.68,0,0,1,293.82,293.81Z" style="fill:#1d1d1b"/><path d="M579.32,394.16V281.39a17.75,17.75,0,0,0-35.49,0v64.34H509.15V281.39a17.74,17.74,0,1,0-35.48,0V394.16c-24.06,2.07-39.82,5.51-39.82,9.42s15.76,7.34,39.82,9.4c15,1.29,33.19,2,52.82,2s37.85-.76,52.83-2c24.06-2.06,39.81-5.5,39.81-9.4S603.38,396.23,579.32,394.16Zm-31.25-17a7.68,7.68,0,0,1,1.29,15.26c-1,0-2-.06-3-.09a7.68,7.68,0,0,1,1.73-15.17Zm-50.84,7.68a7.69,7.69,0,1,1,9.42,7.49l-3,.09A7.7,7.7,0,0,1,497.23,384.89Z" style="fill:#1d1d1b"/></svg>