<svg
  id="Layer_1"
  data-name="Layer 1"
  xmlns="http://www.w3.org/2000/svg"
  viewBox="0 0 396.37 237.88"
>
  <defs>
    <style>
      .cls-1 {
        fill: #1d1d1b;
      }
      .cls-2 {
        fill: #fff;
      }
    </style>
  </defs>
  <title>twin-mascots</title>
  <g class="jon-group">
  <path
    class="jon rabbit"
    d="M144.52,217.75V18.06A18.07,18.07,0,0,0,126.46,0h0A18.07,18.07,0,0,0,108.4,18.06v65.5H73.1V18.06A18.06,18.06,0,0,0,55,0h0A18.07,18.07,0,0,0,37,18.06V217.75M112.72,115.6a7.82,7.82,0,1,1-7.82,7.82A7.82,7.82,0,0,1,112.72,115.6Zm-43.93,0A7.82,7.82,0,1,1,61,123.42,7.82,7.82,0,0,1,68.79,115.6Z"
  />
  <rect class="overflow" x="36.12" y="225.68" width="109.08" height="12.19" />
  <ellipse class="portal" cx="92.64" cy="225.68" rx="92.64" ry="11.54" />
  </g>
  <g class="fonzo-group">
  <path
    class="fonzo rabbit"
    d="M359.44,217.75V18.06A18.07,18.07,0,0,0,341.38,0h0a18.06,18.06,0,0,0-18.06,18.06v65.5H288V18.06A18.07,18.07,0,0,0,270,0h0A18.06,18.06,0,0,0,251.9,18.06V217.75M327.63,115.6a7.82,7.82,0,1,1-7.82,7.82A7.82,7.82,0,0,1,327.63,115.6Zm-43.93,0a7.82,7.82,0,1,1-7.82,7.82A7.82,7.82,0,0,1,283.7,115.6Z"
  />
  <rect class="overflow" x="251.24" y="225.68" width="108.68" height="12.19" />

  <ellipse class="portal" cx="303.73" cy="225.68" rx="92.64" ry="11.54" />
  </g>
</svg>
